<svg width="76" height="77" viewBox="0 0 76 77" fill="none" xmlns="http://www.w3.org/2000/svg">
<path fill-rule="evenodd" clip-rule="evenodd" d="M38 76.0322C58.9868 76.0322 76 59.0118 76 38.0161C76 17.0204 58.9868 0 38 0C17.0132 0 0 17.0204 0 38.0161C0 59.0118 17.0132 76.0322 38 76.0322ZM15.5473 50.679C17.8849 53.8527 21.2243 55.4396 25.5655 55.4396C28.4707 55.4396 30.9252 54.7214 32.9288 53.2848C34.9325 51.8483 36.4519 49.7603 37.4871 47.0208C38.5223 44.2813 39.0399 40.9572 39.0399 37.0485C39.0399 31.1687 37.8878 26.692 35.5837 23.6184C33.2795 20.5449 29.9401 19.0081 25.5655 19.0081C22.6602 19.0081 20.2057 19.693 18.2021 21.0627C16.1985 22.4325 14.679 24.4704 13.6438 27.1764C12.6086 29.8491 12.091 33.1564 12.091 37.0986C12.091 42.945 13.2431 47.4718 15.5473 50.679ZM29.1219 45.5174C28.3539 47.2547 27.1684 48.1233 25.5655 48.1233C23.9626 48.1233 22.7604 47.2547 21.9589 45.5174C21.1909 43.7468 20.8068 40.9238 20.8068 37.0485C20.8068 33.2066 21.1909 30.4671 21.9589 28.8301C22.7604 27.1597 23.9626 26.3245 25.5655 26.3245C27.1684 26.3245 28.3539 27.1597 29.1219 28.8301C29.9234 30.4671 30.3241 33.2066 30.3241 37.0485C30.3241 40.9238 29.9234 43.7468 29.1219 45.5174ZM53.2963 49.3761C53.8306 49.9106 54.5986 50.1779 55.6005 50.1779C56.6357 50.1779 57.4037 49.9106 57.9046 49.3761C58.4389 48.8081 58.7061 48.023 58.7061 47.0208V40.3058H65.268C66.2364 40.3058 66.9711 40.0552 67.472 39.5541C68.0063 39.053 68.2735 38.318 68.2735 37.3492C68.2735 36.3803 68.0063 35.6454 67.472 35.1442C66.9711 34.6431 66.2364 34.3925 65.268 34.3925H58.7061V27.9281C58.7061 26.9258 58.4389 26.1575 57.9046 25.6229C57.4037 25.0884 56.6524 24.8211 55.6505 24.8211C54.6153 24.8211 53.8306 25.0884 53.2963 25.6229C52.762 26.1575 52.4948 26.9258 52.4948 27.9281V34.3925H45.9329C44.9645 34.3925 44.2131 34.6431 43.6788 35.1442C43.1779 35.6454 42.9275 36.3803 42.9275 37.3492C42.9275 38.318 43.1779 39.053 43.6788 39.5541C44.2131 40.0552 44.9645 40.3058 45.9329 40.3058H52.4948V47.0208C52.4948 48.023 52.762 48.8081 53.2963 49.3761Z" fill="#B399F7"/>
</svg>
