<svg width="45" height="46" viewBox="0 0 45 46" fill="none" xmlns="http://www.w3.org/2000/svg">
<path fill-rule="evenodd" clip-rule="evenodd" d="M22.5 45.019C34.9264 45.019 45 34.9412 45 22.5095C45 10.0779 34.9264 0 22.5 0C10.0736 0 0 10.0779 0 22.5095C0 34.9412 10.0736 45.019 22.5 45.019ZM9.20567 30.0073C10.5898 31.8865 12.567 32.8261 15.1375 32.8261C16.8577 32.8261 18.311 32.4008 19.4974 31.5502C20.6837 30.6996 21.5834 29.4633 22.1964 27.8412C22.8093 26.2192 23.1158 24.251 23.1158 21.9366C23.1158 18.4551 22.4336 15.8044 21.0693 13.9846C19.705 12.1647 17.7277 11.2548 15.1375 11.2548C13.4173 11.2548 11.964 11.6603 10.7776 12.4713C9.59124 13.2824 8.69158 14.489 8.07862 16.0913C7.46567 17.6738 7.15919 19.6321 7.15919 21.9663C7.15919 25.4279 7.84135 28.1083 9.20567 30.0073ZM17.2433 26.9511C16.7885 27.9797 16.0866 28.494 15.1375 28.494C14.1884 28.494 13.4766 27.9797 13.002 26.9511C12.5473 25.9027 12.3199 24.2312 12.3199 21.9366C12.3199 19.6618 12.5473 18.0397 13.002 17.0704C13.4766 16.0814 14.1884 15.5869 15.1375 15.5869C16.0866 15.5869 16.7885 16.0814 17.2433 17.0704C17.7178 18.0397 17.9551 19.6618 17.9551 21.9366C17.9551 24.2312 17.7178 25.9027 17.2433 26.9511ZM31.557 29.2358C31.8734 29.5523 32.3282 29.7106 32.9214 29.7106C33.5343 29.7106 33.9891 29.5523 34.2857 29.2358C34.602 28.8995 34.7602 28.4347 34.7602 27.8412V23.8652H38.6456C39.219 23.8652 39.654 23.7169 39.9506 23.4202C40.2669 23.1235 40.4251 22.6883 40.4251 22.1146C40.4251 21.541 40.2669 21.1058 39.9506 20.8091C39.654 20.5123 39.219 20.364 38.6456 20.364H34.7602V16.5363C34.7602 15.9429 34.602 15.4879 34.2857 15.1715C33.9891 14.855 33.5442 14.6967 32.951 14.6967C32.3381 14.6967 31.8734 14.855 31.557 15.1715C31.2407 15.4879 31.0825 15.9429 31.0825 16.5363V20.364H27.1972C26.6237 20.364 26.1789 20.5123 25.8625 20.8091C25.5659 21.1058 25.4176 21.541 25.4176 22.1146C25.4176 22.6883 25.5659 23.1235 25.8625 23.4202C26.1789 23.7169 26.6237 23.8652 27.1972 23.8652H31.0825V27.8412C31.0825 28.4347 31.2407 28.8995 31.557 29.2358Z" fill="#B399F7"/>
</svg>
