<svg width="139" height="84" viewBox="0 0 139 84" fill="none" xmlns="http://www.w3.org/2000/svg">
<g clip-path="url(#clip0_18_325)">
<path d="M52.504 73.4757C52.2393 73.2932 51.9195 73.2068 51.5984 73.2311H50.2576V75.1459H51.5984C51.9187 75.1722 52.2384 75.0883 52.504 74.9083C52.604 74.822 52.6831 74.7143 52.7354 74.5933C52.7877 74.4723 52.8118 74.341 52.8059 74.2094C52.8197 74.0719 52.7994 73.9331 52.7467 73.8051C52.6941 73.6772 52.6108 73.5641 52.504 73.4757Z" fill="white"/>
<path d="M80.8516 73.6572L79.7705 76.215H81.9538L80.8657 73.6572H80.8516Z" fill="white"/>
<path d="M91.6488 53.0486L88.953 59.4569H94.4217L91.7049 53.0486H91.6488Z" fill="white"/>
<path d="M134.388 48.1078C134.458 47.8562 134.528 47.6046 134.591 47.3461C135.589 47.0646 136.46 46.4504 137.058 45.6064C137.656 44.7624 137.944 43.7396 137.875 42.7092C137.806 41.6789 137.384 40.7033 136.678 39.9458C135.973 39.1883 135.028 38.6948 134.002 38.5477C132.282 34.6482 128.603 31.9088 124.223 30.6998C123.137 30.4006 122.013 30.2663 120.888 30.3015C122.783 29.2043 124.286 27.6669 124.602 26.3111C124.882 25.0952 124.131 24.3474 122.769 24.2146C123.047 23.742 123.165 23.1935 123.106 22.6492C122.825 21.0838 120.242 21.0349 117.322 22.5444C115.152 23.6695 113.411 25.3397 112.787 26.7374C112.505 26.7012 112.221 26.6825 111.937 26.6815C108.343 26.6815 104.215 29.994 104.173 33.1527C104.173 35.7664 106.981 37.4366 109.95 37.9537C109.658 38.5653 109.4 39.193 109.178 39.8336H103.134C98.1705 31.9857 93.4881 21.2236 92.5403 19.0013C95.6994 20.5108 97.6019 21.5101 99.7922 20.8323C104.706 19.3018 106.644 13.215 105.787 12.6838C100.915 9.67186 97.6721 10.4825 95.1589 11.1813C95.8833 10.5313 96.5183 9.78873 97.0473 8.97303C97.8807 7.67448 98.4086 6.2053 98.5918 4.67519C98.6259 4.41921 98.5757 4.15912 98.4489 3.93386C98.3221 3.7086 98.1254 3.5303 97.8882 3.42564C97.6511 3.32098 97.3863 3.29561 97.1334 3.35331C96.8806 3.41102 96.6534 3.5487 96.4857 3.74574L96.4365 3.80165C95.6692 4.71038 94.8159 5.5435 93.8882 6.2895C93.0615 6.94039 92.1408 7.46341 91.1574 7.84092C90.1879 8.20192 89.1756 8.4368 88.1457 8.53975C87.2914 8.61471 86.4331 8.63338 85.5763 8.59566C84.0848 8.1228 82.5488 7.80202 80.9921 7.63825C79.6367 7.47302 78.2685 7.43791 76.9064 7.53343C76.0024 7.29174 75.1119 7.00248 74.2387 6.66687C73.3665 6.33257 72.5408 5.88871 71.7816 5.34607C71.0017 4.76886 70.2946 4.10014 69.6755 3.35439C68.9735 2.55772 68.3487 1.61429 67.5695 0.559052L67.5203 0.489169C67.3756 0.291212 67.175 0.140479 66.9442 0.0560617C66.7133 -0.0283553 66.4624 -0.0426578 66.2233 0.0149659C65.9843 0.0725895 65.7678 0.199547 65.6012 0.379756C65.4347 0.559966 65.3257 0.785319 65.2879 1.02727C65.055 2.49913 65.1851 4.00529 65.667 5.41596C66.0867 6.65322 66.7556 7.79224 67.6327 8.76338C65.6974 8.01716 63.6352 7.65167 61.5602 7.68717C60.7178 7.68717 56.9269 8.00864 56.0774 8.8123C55.586 9.28052 56.2038 14.6336 58.7942 16.6742C62.6624 19.7211 68.0679 16.4226 68.2996 16.2828C68.2504 16.4436 66.5094 21.615 65.6881 25.0952C65.0055 27.7546 64.8035 30.5137 65.0914 33.2436C65.1686 33.5581 65.2528 33.8655 65.3581 34.173C65.5238 34.7162 65.7351 35.2445 65.9899 35.7524C66.1879 36.1996 66.4227 36.6296 66.692 37.0383C67.8353 38.8131 69.496 40.198 71.4517 41.0076C73.5251 41.7426 75.7288 42.0424 77.9243 41.8882C79.0549 41.8498 80.179 41.6999 81.2799 41.4409C82.3778 41.1928 83.4361 40.7954 84.425 40.2599C84.5454 40.1994 84.6842 40.186 84.8141 40.2222C84.944 40.2584 85.0556 40.3416 85.127 40.4556C85.169 40.5277 85.1908 40.6098 85.1902 40.6932C85.1913 40.7703 85.1741 40.8466 85.1399 40.9158C85.1057 40.985 85.0556 41.0452 84.9936 41.0915C82.9578 42.5252 80.5867 43.4154 78.1068 43.6772C77.2186 43.8041 76.3224 43.8671 75.4251 43.8659C75.0811 43.8659 74.7231 43.8659 74.3931 43.8659C73.1113 43.8227 71.841 43.6088 70.6162 43.2299C68.7578 42.567 67.0767 41.4888 65.7021 40.0782C65.6459 40.0153 65.5828 39.9594 65.5336 39.8965H53.8941C53.5815 39.3092 53.3456 38.6845 53.1921 38.0376C54.3469 37.5353 55.3649 36.7663 56.1617 35.7943C58.45 33.7092 60.0753 31.0029 60.8371 28.0093C60.8371 27.9534 60.8371 27.9045 60.8371 27.8486L60.8792 27.6319C60.9299 27.3223 60.9557 27.0092 60.9565 26.6955C60.9592 26.2498 60.9169 25.805 60.8301 25.3677L62.0937 23.404C62.1089 23.383 62.1173 23.358 62.1177 23.3321C62.1181 23.3063 62.1105 23.281 62.0959 23.2596C62.0813 23.2382 62.0605 23.2219 62.0363 23.2127C62.012 23.2035 61.9855 23.202 61.9603 23.2083L60.0789 23.5368C59.1803 22.2229 57.6289 21.5101 55.6 21.5101C53.3606 21.5101 51.8021 23.4948 50.2226 25.6193C49.3801 25.5494 48.5447 25.5284 47.7514 25.5284C43.3428 25.5284 41.0472 25.7311 41.0472 30.1128C41.0472 33.6489 44.0237 37.0103 47.4847 38.1843C47.6258 38.7574 47.8064 39.3202 48.0252 39.8685H32.8265C35.431 37.544 37.3691 34.573 38.4427 31.2589C38.8007 30.2036 38.5831 29.7983 37.516 29.2742C33.9006 27.4992 27.1121 26.0735 21.173 28.6243C20.9834 28.7011 20.8009 28.799 20.6184 28.8898C19.8251 28.7011 18.2175 28.5823 15.0022 29.0506C13.1138 29.3511 11.1692 30.0499 10.5303 31.0143C10.0389 31.7131 10.4742 32.1115 11.2324 32.6985L14.1317 34.8369C12.7617 36.7641 11.557 38.8026 10.5303 40.9308C7.45898 41.3079 4.52258 42.41 1.96569 44.1454C1.85898 44.2251 1.77597 44.3321 1.72554 44.455C1.6751 44.5779 1.65912 44.7122 1.67929 44.8434C1.69947 44.9747 1.75504 45.098 1.8401 45.2003C1.92515 45.3026 2.03649 45.38 2.16226 45.4243L5.85488 46.6612C2.08491 50.6471 -0.00994776 55.918 3.55188e-05 61.3927V62.4759C3.55188e-05 68.1844 2.27808 73.6591 6.33304 77.6957C10.388 81.7323 15.8877 84 21.6223 84H118.347C123.824 84 129.078 81.8339 132.951 77.9782C136.824 74.1225 139 68.893 139 63.4402V61.3927C139.005 56.5744 137.38 51.8949 134.388 48.1078ZM74.8565 24.8576C74.7849 24.8855 74.7087 24.8997 74.6318 24.8995C74.5035 24.9003 74.3791 24.8558 74.2808 24.7737C73.4869 24.0863 72.513 23.6379 71.4727 23.4808C70.9897 23.3962 70.4955 23.3962 70.0125 23.4808C69.5536 23.5666 69.1294 23.7826 68.791 24.1028C68.6884 24.2044 68.5496 24.2614 68.4049 24.2614C68.2602 24.2614 68.1214 24.2044 68.0188 24.1028C67.9494 24.0308 67.9016 23.9411 67.8805 23.8436C67.8594 23.7461 67.866 23.6447 67.8994 23.5507C68.0477 23.1874 68.2722 22.8598 68.5579 22.5898C68.8436 22.3199 69.184 22.1138 69.5562 21.9853C70.2442 21.7214 70.9898 21.6419 71.7184 21.7547C72.4329 21.8618 73.1141 22.1269 73.7122 22.5304C74.3253 22.9181 74.8128 23.4738 75.1162 24.1308C75.1471 24.1955 75.165 24.2656 75.1686 24.3371C75.1723 24.4087 75.1618 24.4803 75.1377 24.5478C75.1136 24.6153 75.0763 24.6774 75.028 24.7305C74.9798 24.7837 74.9215 24.8268 74.8565 24.8576ZM57.3059 23.6556C57.5072 23.6334 57.7105 23.6711 57.8902 23.7639C58.07 23.8567 58.2181 24.0004 58.3159 24.1768C58.4137 24.3533 58.4568 24.5546 58.4397 24.7555C58.4227 24.9563 58.3463 25.1476 58.2202 25.3053C58.0941 25.4629 57.9239 25.5799 57.7311 25.6414C57.5383 25.7028 57.3315 25.7061 57.1368 25.6507C56.9422 25.5954 56.7683 25.4839 56.6373 25.3303C56.5062 25.1767 56.4237 24.9879 56.4003 24.7877C56.3708 24.5171 56.4503 24.2459 56.6214 24.0337C56.7925 23.8214 57.0412 23.6854 57.313 23.6556H57.3059ZM85.0849 27.4432C84.9864 27.4373 84.8913 27.4049 84.8097 27.3495C84.7281 27.2942 84.6631 27.2179 84.6216 27.1288C84.4286 26.7051 84.1196 26.3443 83.73 26.0875C83.3226 25.8186 82.8712 25.6223 82.3962 25.5075C81.3859 25.2545 80.3242 25.2933 79.3353 25.6193C79.2162 25.662 79.0859 25.6622 78.9666 25.62C78.8473 25.5779 78.7464 25.4958 78.681 25.3879C78.6156 25.28 78.5898 25.1528 78.608 25.0281C78.6262 24.9034 78.6872 24.7888 78.7807 24.7038C79.3092 24.2197 79.9635 23.8929 80.6692 23.7604C81.368 23.6318 82.0866 23.6556 82.7752 23.8303C83.4918 24.0101 84.1496 24.3712 84.6847 24.8785C84.9779 25.1436 85.2114 25.4675 85.3699 25.8288C85.5284 26.1902 85.6083 26.5808 85.6044 26.975C85.5867 27.1001 85.5259 27.2151 85.4324 27.3005C85.339 27.3859 85.2186 27.4364 85.0919 27.4432H85.0849ZM50.0681 38.6246C50.463 38.6244 50.8573 38.594 51.2475 38.5338C51.3702 38.9881 51.5226 39.434 51.7038 39.8685H50.2998C50.0721 39.4668 49.8863 39.043 49.7452 38.6036L50.0681 38.6246ZM31.2821 30.8745C31.3219 30.6525 31.4271 30.4473 31.5842 30.2848C31.7414 30.1224 31.9434 30.01 32.1648 29.962C32.3862 29.914 32.6169 29.9324 32.8277 30.0151C33.0385 30.0977 33.2199 30.2407 33.349 30.4261C33.478 30.6114 33.5489 30.8307 33.5526 31.0562C33.5564 31.2817 33.4928 31.5033 33.3699 31.6927C33.247 31.8822 33.0704 32.0311 32.8625 32.1206C32.6545 32.2101 32.4245 32.2361 32.2017 32.1953C32.0539 32.1692 31.9128 32.1143 31.7865 32.0337C31.6602 31.953 31.5511 31.8483 31.4656 31.7255C31.3801 31.6028 31.3199 31.4643 31.2884 31.3183C31.2569 31.1722 31.2547 31.0214 31.2821 30.8745ZM34.4482 50.8402L27.6175 65.7744C27.4003 66.3305 27.0306 66.8148 26.5504 67.172C26.0392 67.4927 25.4411 67.6489 24.8375 67.6193C24.2273 67.6487 23.6226 67.4927 23.1035 67.172C22.6138 66.8144 22.2305 66.3314 21.9943 65.7744L15.1988 50.8402C14.9146 50.2995 14.8159 49.681 14.918 49.0792C15.0107 48.5854 15.2927 48.1469 15.7042 47.8562C16.161 47.5549 16.7011 47.4034 17.2487 47.4229C17.8665 47.3773 18.48 47.5561 18.9756 47.9261C19.4141 48.3431 19.7545 48.8514 19.9725 49.4146L24.9218 60.7987L29.8359 49.3867C30.0643 48.8189 30.4253 48.3134 30.8889 47.9121C31.3671 47.562 31.9531 47.3889 32.5457 47.4229C33.0688 47.4067 33.5833 47.5586 34.0129 47.8562C34.4087 48.1544 34.6749 48.5919 34.7571 49.0792C34.8378 49.6838 34.7299 50.2986 34.4482 50.8402ZM40.0643 66.7108C39.8201 66.4462 39.6321 66.1353 39.5114 65.7967C39.3908 65.4581 39.3401 65.0987 39.3623 64.7401V50.3161C39.3407 49.9565 39.3917 49.5962 39.5123 49.2566C39.6329 48.9169 39.8206 48.6047 40.0643 48.3384C40.3352 48.0945 40.6524 47.907 40.9973 47.787C41.3421 47.667 41.7075 47.6168 42.0721 47.6396H51.5985C52.1531 47.6006 52.7007 47.7814 53.1219 48.1427C53.3017 48.3419 53.4392 48.5752 53.5261 48.8286C53.6129 49.082 53.6474 49.3503 53.6274 49.6173C53.6609 50.1623 53.4796 50.6988 53.1219 51.1128C52.9162 51.2968 52.6751 51.4376 52.4133 51.5264C52.1515 51.6153 51.8744 51.6505 51.5985 51.6299H44.3256V55.3757H50.9807C51.5306 55.3404 52.0725 55.521 52.4901 55.8788C52.8266 56.3013 53.0098 56.8247 53.0098 57.3639C53.0098 57.9031 52.8266 58.4264 52.4901 58.8489C52.0725 59.2067 51.5306 59.3873 50.9807 59.3521H44.3256V63.4053H51.5985C51.8744 63.3847 52.1515 63.4199 52.4133 63.5088C52.6751 63.5977 52.9162 63.7384 53.1219 63.9224C53.4498 64.3447 53.6277 64.8633 53.6277 65.397C53.6277 65.9307 53.4498 66.4493 53.1219 66.8715C52.7007 67.2328 52.1531 67.4137 51.5985 67.3747H42.0721C41.7098 67.4037 41.3454 67.3599 41.0004 67.2459C40.6555 67.1318 40.3372 66.9498 40.0643 66.7108ZM54.1047 78.7937C53.9643 78.8944 53.7932 78.9438 53.6203 78.9334C53.4377 78.9424 53.2566 78.8961 53.1008 78.8007C52.9563 78.6891 52.8367 78.5486 52.7498 78.3883L51.8232 76.6832C51.7483 76.5277 51.6253 76.4003 51.4722 76.3198C51.3126 76.2518 51.1403 76.2184 50.9667 76.2219H50.2647V78.1647C50.2783 78.3708 50.2103 78.574 50.0751 78.7308C50.003 78.8026 49.9161 78.858 49.8203 78.893C49.7245 78.928 49.6222 78.9418 49.5205 78.9334C49.4177 78.9428 49.3141 78.9296 49.217 78.8945C49.1199 78.8595 49.0318 78.8036 48.9589 78.7308C48.8238 78.574 48.7558 78.3708 48.7694 78.1647V72.8256C48.762 72.7229 48.7757 72.6198 48.8094 72.5225C48.8432 72.4252 48.8965 72.3358 48.966 72.2596C49.1213 72.1261 49.3228 72.0584 49.5276 72.0709H51.8793C52.512 72.0295 53.1376 72.2238 53.6344 72.616C53.8446 72.8097 54.0091 73.0475 54.1159 73.3121C54.2227 73.5768 54.2693 73.8617 54.2522 74.1464C54.2614 74.5308 54.1643 74.9104 53.9714 75.2436C53.7801 75.553 53.4984 75.7968 53.164 75.9424C53.0258 76.0001 52.8825 76.0446 52.7358 76.0752C52.85 76.1083 52.9588 76.1577 53.0587 76.2219C53.2808 76.3766 53.4615 76.5829 53.5852 76.8229L54.189 77.9271C54.2722 78.0717 54.3158 78.2356 54.3153 78.4023C54.3141 78.4766 54.2972 78.5499 54.2658 78.6173C54.2344 78.6847 54.1891 78.7448 54.1328 78.7937H54.1047ZM61.3075 75.9983C61.3245 76.5591 61.2116 77.1162 60.9775 77.6266C60.7652 78.0543 60.4173 78.4006 59.9877 78.612C59.4828 78.8459 58.9297 78.9584 58.373 78.9404C57.9396 78.9483 57.5078 78.8846 57.0953 78.7517C56.7462 78.6402 56.427 78.4515 56.1617 78.1996C55.9022 77.9434 55.7074 77.6297 55.593 77.2842C55.4622 76.8683 55.4005 76.434 55.4105 75.9983V72.7278C55.4032 72.6277 55.4176 72.5272 55.4527 72.4332C55.4879 72.3392 55.543 72.2538 55.6143 72.1829C55.6855 72.1119 55.7713 72.0571 55.8658 72.0221C55.9602 71.9871 56.0611 71.9727 56.1617 71.98C56.2629 71.9735 56.3643 71.989 56.459 72.0252C56.5537 72.0615 56.6393 72.1178 56.71 72.1902C56.7808 72.2626 56.8349 72.3494 56.8687 72.4446C56.9025 72.5398 56.9151 72.6412 56.9058 72.7417V76.0193C56.8724 76.4653 57.0048 76.908 57.2779 77.2632C57.4192 77.4076 57.5903 77.5198 57.7793 77.5922C57.9684 77.6646 58.1709 77.6954 58.373 77.6825C58.574 77.6944 58.7752 77.6631 58.9629 77.5907C59.1507 77.5184 59.3206 77.4067 59.4611 77.2632C59.7342 76.908 59.8666 76.4653 59.8332 76.0193V72.7417C59.8233 72.6386 59.8365 72.5346 59.8719 72.4372C59.9073 72.3399 59.964 72.2515 60.0379 72.1786C60.1118 72.1057 60.2011 72.0501 60.2992 72.0157C60.3974 71.9814 60.502 71.9692 60.6054 71.98C60.7043 71.9728 60.8036 71.9865 60.8968 72.0202C60.9899 72.0539 61.0749 72.1069 61.146 72.1757C61.2139 72.2527 61.2656 72.3425 61.2982 72.4397C61.3307 72.5369 61.3434 72.6396 61.3355 72.7417L61.3075 75.9983ZM67.6256 77.6965C67.5002 77.9706 67.3099 78.2104 67.0711 78.3953C66.805 78.5918 66.5053 78.7386 66.1865 78.8286C65.8139 78.9308 65.4287 78.9802 65.0422 78.9754C64.4908 78.9722 63.9426 78.8922 63.4135 78.7377C63.1675 78.6712 62.9315 78.5725 62.7115 78.4442C62.5802 78.3801 62.474 78.2744 62.4096 78.1437C62.3537 78.0263 62.3318 77.8956 62.3465 77.7664C62.3584 77.6397 62.41 77.5199 62.4939 77.4239C62.5708 77.3249 62.6801 77.2557 62.8028 77.2283C62.9479 77.2043 63.0968 77.2315 63.224 77.3051C63.4941 77.4546 63.7851 77.563 64.0875 77.6266C64.3938 77.6961 64.707 77.7313 65.0212 77.7314C65.3701 77.7614 65.7199 77.6859 66.025 77.5148C66.1158 77.4571 66.1903 77.3775 66.2419 77.2834C66.2934 77.1894 66.3203 77.0838 66.3199 76.9767C66.3232 76.8908 66.3058 76.8054 66.2692 76.7276C66.2325 76.6498 66.1777 76.5818 66.1093 76.5294C65.8818 76.3904 65.6289 76.2978 65.3651 76.2569L64.277 76.0263C63.7475 75.9439 63.2568 75.6997 62.873 75.3274C62.72 75.1637 62.6014 74.9712 62.5242 74.7611C62.4471 74.5511 62.4129 74.3278 62.4237 74.1045C62.4179 73.8018 62.4853 73.5022 62.6202 73.2309C62.7588 72.9591 62.9553 72.7206 63.1959 72.5321C63.4531 72.3282 63.7493 72.1784 64.0664 72.0918C64.4646 71.9878 64.8773 71.95 65.2879 71.98C65.6451 71.9797 66.0009 72.0219 66.348 72.1058C66.6732 72.1842 66.9837 72.3139 67.2676 72.4902C67.3876 72.5548 67.4818 72.6584 67.5344 72.7837C67.5805 72.8941 67.5974 73.0144 67.5835 73.1331C67.5678 73.2506 67.5163 73.3604 67.436 73.4479C67.3557 73.5353 67.2504 73.5962 67.1342 73.6223C66.9816 73.6434 66.8261 73.614 66.692 73.5384C66.4707 73.4243 66.2344 73.342 65.9899 73.2938C65.759 73.2455 65.5239 73.2198 65.2879 73.2169C65.0495 73.2103 64.8118 73.2458 64.5859 73.3218C64.4166 73.3817 64.2663 73.4854 64.1506 73.6223C64.0526 73.748 64.0005 73.9034 64.0032 74.0625C64.0012 74.1486 64.0184 74.2339 64.0536 74.3125C64.0888 74.3911 64.1412 74.4608 64.2068 74.5168C64.4164 74.6619 64.6565 74.7575 64.9088 74.7963L66.004 75.0269C66.5239 75.1083 67.0104 75.3335 67.408 75.6769C67.5632 75.8296 67.6846 76.0129 67.7643 76.2151C67.8441 76.4173 67.8806 76.6339 67.8714 76.8509C67.8771 77.1483 67.8122 77.4428 67.6818 77.7105L67.6256 77.6965ZM73.8175 77.6965C73.692 77.9706 73.5017 78.2104 73.2629 78.3953C72.9968 78.5918 72.6971 78.7386 72.3783 78.8286C72.0057 78.9308 71.6205 78.9802 71.234 78.9754C70.6827 78.9722 70.1345 78.8922 69.6053 78.7377C69.3593 78.6712 69.1233 78.5725 68.9033 78.4442C68.772 78.3801 68.6658 78.2744 68.6015 78.1437C68.5455 78.0263 68.5237 77.8956 68.5383 77.7664C68.5502 77.6397 68.6018 77.5199 68.6857 77.4239C68.7627 77.3249 68.8719 77.2557 68.9946 77.2283C69.1397 77.2043 69.2887 77.2315 69.4158 77.3051C69.6859 77.4546 69.977 77.563 70.2793 77.6266C70.5856 77.6961 70.8988 77.7313 71.213 77.7314C71.5619 77.7614 71.9117 77.6859 72.2169 77.5148C72.3076 77.4571 72.3822 77.3775 72.4337 77.2834C72.4853 77.1894 72.5121 77.0838 72.5117 76.9767C72.515 76.8908 72.4976 76.8054 72.461 76.7276C72.4244 76.6498 72.3695 76.5818 72.3011 76.5294C72.0736 76.3904 71.8207 76.2978 71.557 76.2569L70.4688 76.0263C69.9393 75.9439 69.4487 75.6997 69.0648 75.3274C68.9118 75.1637 68.7932 74.9712 68.716 74.7611C68.6389 74.5511 68.6047 74.3278 68.6155 74.1045C68.6097 73.8018 68.6771 73.5022 68.8121 73.2309C68.9506 72.9591 69.1471 72.7206 69.3877 72.5321C69.6458 72.3295 69.9417 72.1798 70.2582 72.0918C70.6203 71.9847 70.9967 71.9328 71.3744 71.9381C71.7316 71.9377 72.0874 71.98 72.4345 72.0639C72.7597 72.1423 73.0702 72.272 73.3541 72.4482C73.4741 72.5128 73.5683 72.6164 73.6209 72.7417C73.667 72.8521 73.684 72.9724 73.67 73.0912C73.6543 73.2086 73.6028 73.3185 73.5225 73.4059C73.4422 73.4934 73.3369 73.5543 73.2207 73.5803C73.0681 73.6015 72.9127 73.572 72.7785 73.4965C72.5572 73.3824 72.3209 73.3 72.0765 73.2519C71.8456 73.2033 71.6104 73.1776 71.3744 73.175C71.136 73.1683 70.8983 73.2038 70.6724 73.2798C70.5031 73.3397 70.3528 73.4435 70.2372 73.5803C70.1391 73.7061 70.0871 73.8614 70.0897 74.0206C70.0877 74.1066 70.1049 74.192 70.1401 74.2706C70.1753 74.3491 70.2277 74.4189 70.2933 74.4749C70.5029 74.62 70.743 74.7156 70.9953 74.7544L72.0905 74.985C72.6105 75.0664 73.097 75.2916 73.4945 75.6349C73.6497 75.7877 73.7711 75.971 73.8509 76.1732C73.9306 76.3754 73.9671 76.5919 73.9579 76.809C74.0037 77.1118 73.9748 77.4212 73.8736 77.7105L73.8175 77.6965ZM76.4851 78.1507C76.4988 78.3568 76.4307 78.56 76.2956 78.7168C76.2235 78.7887 76.1365 78.844 76.0408 78.879C75.945 78.914 75.8427 78.9278 75.741 78.9194C75.6382 78.9289 75.5345 78.9156 75.4375 78.8805C75.3404 78.8455 75.2523 78.7896 75.1794 78.7168C75.0443 78.56 74.9762 78.3568 74.9898 78.1507V72.7487C74.9791 72.543 75.0468 72.3409 75.1794 72.1827C75.3353 72.0512 75.5331 71.979 75.7375 71.979C75.9419 71.979 76.1396 72.0512 76.2956 72.1827C76.4282 72.3409 76.4958 72.543 76.4851 72.7487V78.1507ZM77.0046 64.4745C77.0123 64.9629 76.8913 65.4448 76.6536 65.8722C76.4011 66.2789 76.0058 66.5778 75.5444 66.7108C74.6107 67.0222 73.6527 67.2559 72.6802 67.4096C71.6567 67.5767 70.6214 67.6608 69.5843 67.6612C67.6131 67.7232 65.6565 67.3058 63.8839 66.4452C62.3561 65.6649 61.0971 64.4482 60.2685 62.9511C59.4169 61.3214 58.9919 59.5043 59.0329 57.6679C59.0132 56.2201 59.2656 54.7814 59.7771 53.4259C60.2582 52.181 61.0118 51.0584 61.9833 50.1397C62.9548 49.221 64.1196 48.5293 65.3932 48.1148C66.8814 47.6201 68.4439 47.3837 70.0125 47.416C70.9756 47.4193 71.9365 47.5081 72.8838 47.6815C73.883 47.8715 74.8483 48.2083 75.748 48.6809C76.1872 48.8565 76.5433 49.1911 76.7449 49.6173C76.92 50.0121 76.9784 50.4485 76.9134 50.8752C76.8508 51.3075 76.6873 51.7191 76.436 52.0772C76.1882 52.4236 75.825 52.6712 75.411 52.776C74.9182 52.8922 74.3998 52.8277 73.9508 52.5943C73.3666 52.3275 72.7544 52.126 72.1256 51.9933C71.433 51.8495 70.727 51.7792 70.0195 51.7837C68.9339 51.7552 67.858 51.9953 66.8885 52.4825C66.0638 52.9217 65.4075 53.6193 65.0212 54.4672C64.5805 55.483 64.3696 56.5829 64.4034 57.6888C64.4034 59.5897 64.8714 61.0246 65.8074 61.9937C66.7271 62.8952 68.096 63.3983 69.9493 63.3983C70.5684 63.3932 71.1859 63.3371 71.7956 63.2306C72.1396 63.1747 72.4977 63.0978 72.8487 63.014V59.9041H70.9041C70.3699 59.938 69.8427 59.7681 69.4298 59.4289C69.2524 59.2535 69.1143 59.0425 69.0248 58.81C68.9352 58.5775 68.8962 58.3288 68.9103 58.0802C68.8951 57.8346 68.9337 57.5887 69.0234 57.3594C69.1131 57.1302 69.2518 56.923 69.4298 56.7524C69.8471 56.4225 70.3723 56.2582 70.9041 56.2912H75.0671C75.3411 56.2583 75.6191 56.288 75.8799 56.378C76.1407 56.468 76.3775 56.6159 76.5724 56.8105C76.7672 57.0052 76.915 57.2414 77.0045 57.5014C77.094 57.7613 77.1228 58.0381 77.0889 58.3108L77.0046 64.4745ZM84.0248 78.8007C83.9007 78.8839 83.7532 78.9256 83.6036 78.9194C83.4218 78.9322 83.2418 78.8774 83.0982 78.7657C82.9736 78.623 82.8846 78.453 82.8384 78.2695L82.4383 77.3471H79.2511L78.858 78.2695C78.7914 78.4511 78.6887 78.6175 78.5561 78.7587C78.4223 78.8626 78.2552 78.9148 78.0857 78.9055C77.9283 78.9142 77.7725 78.8699 77.6435 78.7797C77.533 78.6985 77.4577 78.5786 77.4329 78.4442C77.4085 78.2832 77.4381 78.1186 77.5171 77.976L80.0303 72.609C80.1099 72.4225 80.2354 72.259 80.3954 72.1338C80.5409 72.0337 80.7135 71.9801 80.8903 71.9801C81.0671 71.9801 81.2398 72.0337 81.3852 72.1338C81.545 72.2576 81.6685 72.4217 81.7433 72.609L84.2354 78.004C84.3137 78.1494 84.3456 78.3152 84.3267 78.4792C84.3149 78.5476 84.2888 78.6129 84.2502 78.6706C84.2115 78.7284 84.161 78.7775 84.1021 78.8146L84.0248 78.8007ZM91.045 78.2276C91.0594 78.4099 91.0014 78.5905 90.8836 78.7308C90.8285 78.7929 90.7603 78.842 90.6838 78.8746C90.6073 78.9073 90.5245 78.9226 90.4413 78.9194C90.2892 78.9265 90.1382 78.8901 90.0061 78.8146C89.8767 78.7212 89.7629 78.608 89.6691 78.4792L86.5381 74.5028V78.1996C86.5493 78.3924 86.4866 78.5823 86.3626 78.7308C86.2933 78.7956 86.2116 78.8457 86.1223 78.8782C86.033 78.9106 85.938 78.9246 85.8431 78.9194C85.7482 78.9246 85.6532 78.9106 85.5639 78.8782C85.4746 78.8457 85.3928 78.7956 85.3236 78.7308C85.2592 78.659 85.2103 78.5748 85.1801 78.4834C85.1499 78.3921 85.139 78.2954 85.1481 78.1996V72.7208C85.1324 72.5189 85.1952 72.3188 85.3236 72.1617C85.3848 72.0975 85.459 72.0468 85.5413 72.0131C85.6235 71.9794 85.712 71.9634 85.8009 71.966C85.9423 71.9564 86.0829 71.9932 86.2011 72.0709C86.3258 72.1623 86.4348 72.2732 86.524 72.3993L89.655 76.3687V72.6788C89.6446 72.4871 89.7102 72.2989 89.8376 72.1547C89.906 72.0908 89.9866 72.0411 90.0746 72.0087C90.1626 71.9763 90.2563 71.9618 90.35 71.966C90.4449 71.9608 90.5399 71.9749 90.6292 72.0073C90.7185 72.0397 90.8003 72.0899 90.8695 72.1547C90.933 72.2256 90.9813 72.3087 91.0115 72.3988C91.0417 72.4889 91.0531 72.5842 91.045 72.6788V78.2276ZM101.905 66.1238C101.874 66.349 101.796 66.5651 101.675 66.7578C101.554 66.9505 101.393 67.1155 101.203 67.2419C100.787 67.5124 100.296 67.649 99.7992 67.6333C99.1819 67.6745 98.5699 67.4962 98.0723 67.1301C97.588 66.6811 97.2154 66.126 96.9841 65.5088L96.0785 63.4123H87.2752L86.3626 65.5088C86.1225 66.1098 85.7699 66.66 85.3236 67.1301C84.8657 67.4998 84.2825 67.6799 83.6949 67.6333C83.1776 67.6528 82.6671 67.5111 82.2347 67.2279C82.0481 67.0981 81.8898 66.9322 81.7692 66.7401C81.6486 66.548 81.5681 66.3336 81.5327 66.1098C81.4487 65.5609 81.537 64.9996 81.7854 64.5025L88.8056 49.5125C89.0699 48.8768 89.5016 48.3239 90.0552 47.9121C90.5558 47.5741 91.1492 47.3984 91.7541 47.409C92.3506 47.3957 92.9358 47.572 93.4249 47.9121C93.9666 48.3358 94.3957 48.8853 94.6745 49.5125L101.695 64.5025C101.954 65.0061 102.043 65.5798 101.947 66.1377L101.905 66.1238ZM107.823 31.4685C107.725 31.2884 107.668 31.0889 107.656 30.8843C107.644 30.6797 107.677 30.475 107.753 30.2845C107.829 30.0941 107.946 29.9227 108.097 29.7825C108.247 29.6422 108.426 29.5366 108.622 29.473C108.818 29.4095 109.025 29.3895 109.229 29.4146C109.434 29.4398 109.63 29.5093 109.804 29.6184C109.979 29.7274 110.127 29.8733 110.238 30.0457C110.35 30.2181 110.422 30.4128 110.449 30.616C110.73 31.3497 108.111 32.2023 107.865 31.4825L107.823 31.4685ZM123.001 65.3131C123.033 65.927 122.833 66.5305 122.439 67.0043C122.249 67.2141 122.014 67.3793 121.752 67.488C121.49 67.5968 121.207 67.6464 120.923 67.6333C120.399 67.6637 119.877 67.5424 119.421 67.2838C118.976 66.9798 118.582 66.6071 118.255 66.1797L110.175 56.0675V65.2153C110.2 65.5428 110.159 65.8719 110.055 66.1837C109.952 66.4955 109.787 66.7839 109.571 67.0323C109.332 67.2504 109.05 67.4174 108.744 67.5232C108.437 67.629 108.112 67.6712 107.788 67.6472C107.461 67.6708 107.133 67.6285 106.823 67.5228C106.513 67.4171 106.228 67.2503 105.984 67.0323C105.765 66.7856 105.597 66.4978 105.491 66.1858C105.385 65.8738 105.343 65.5438 105.366 65.2153V49.9737C105.32 49.289 105.542 48.613 105.984 48.0868C106.189 47.8585 106.441 47.6777 106.724 47.5569C107.007 47.4362 107.312 47.3785 107.62 47.388C108.111 47.3611 108.599 47.4777 109.024 47.7234C109.458 48.0612 109.837 48.4644 110.147 48.9185L118.269 58.9817V49.8339C118.246 49.5097 118.287 49.184 118.391 48.8758C118.494 48.5675 118.658 48.2827 118.873 48.0379C119.382 47.6401 120.01 47.4238 120.656 47.4238C121.303 47.4238 121.931 47.6401 122.439 48.0379C122.871 48.5339 123.088 49.1794 123.043 49.8339L123.001 65.3131Z" fill="white"/>
<path d="M118.143 14.7735C118.115 15.7369 118 16.6958 117.799 17.6387C117.222 17.7224 116.635 17.7224 116.058 17.6387C116.26 16.6353 116.366 15.6151 116.374 14.5918C116.935 14.8149 117.548 14.8778 118.143 14.7735Z" fill="white"/>
<path d="M120.93 15.1297C120.823 15.6128 120.597 16.0618 120.272 16.4363C119.947 16.8108 119.534 17.099 119.07 17.2751C119.161 16.101 119.182 14.7593 119.182 14.5287C119.74 14.3509 120.279 14.1168 120.79 13.8298C120.952 14.2429 121 14.6917 120.93 15.1297Z" fill="white"/>
<path d="M118.641 11.2163C118.641 11.2163 118.269 10.8878 118.108 11.4608C118.317 11.532 118.521 11.616 118.719 11.7124L118.641 11.2163Z" fill="white"/>
<path d="M120.481 10.154C119.777 10.1131 119.07 10.1506 118.375 10.2658C117.897 10.347 117.427 10.4686 116.971 10.6292C116.598 10.755 115.567 11.1253 115.426 11.1393H115.265C115.265 11.3629 115.265 11.6075 115.321 11.901C115.386 12.5138 115.402 13.1307 115.37 13.746C115.613 14.1154 115.967 14.3991 116.381 14.5566C116.941 14.7844 117.553 14.8522 118.15 14.7523C118.206 14.7557 118.262 14.7557 118.318 14.7523C118.613 14.6974 118.904 14.6227 119.189 14.5287C119.747 14.3509 120.286 14.1168 120.797 13.8298C121.793 13.2568 122.566 12.509 122.517 11.7822C122.467 11.0555 121.562 10.4824 120.481 10.154Z" fill="white"/>
<path d="M120.045 9.54609C119.45 9.57273 118.858 9.65225 118.276 9.7837C117.289 10.0017 116.352 10.3997 115.51 10.9577C115.483 10.9786 115.463 11.0069 115.451 11.0392C115.44 11.0715 115.439 11.1063 115.447 11.1394H115.286C115.286 11.3631 115.286 11.6077 115.342 11.9012C115.407 12.5139 115.423 13.1308 115.391 13.7461C115.361 14.4166 115.286 15.0843 115.166 15.7448C115.166 15.9195 115.11 16.0872 115.075 16.2339C114.998 16.6043 114.921 16.8909 114.879 17.0586C114.879 17.1005 114.879 17.1354 114.879 17.1634C114.877 17.1913 114.877 17.2193 114.879 17.2473C113.103 16.5484 111.958 15.0948 112.204 13.6273C112.201 13.6111 112.201 13.5945 112.204 13.5784L111.572 13.4176C111.298 13.4176 109.564 13.3617 108.652 13.4176C108.564 13.4251 108.477 13.3976 108.41 13.3412C108.343 13.2849 108.301 13.2043 108.294 13.1171C108.286 13.03 108.314 12.9435 108.37 12.8767C108.427 12.8099 108.508 12.7681 108.596 12.7607C109.62 12.6769 111.551 12.7607 111.635 12.7607H111.705L112.408 12.9424C112.405 12.9169 112.405 12.8911 112.408 12.8656L111.818 12.2925C111.439 12.2087 109.936 11.8802 108.954 11.7195C108.911 11.7121 108.87 11.6965 108.833 11.6733C108.796 11.6502 108.764 11.6201 108.739 11.5848C108.714 11.5494 108.696 11.5095 108.687 11.4672C108.677 11.425 108.676 11.3813 108.683 11.3386C108.691 11.2959 108.706 11.2551 108.73 11.2185C108.753 11.1819 108.783 11.1502 108.819 11.1252C108.854 11.1002 108.894 11.0824 108.937 11.0729C108.979 11.0633 109.023 11.0622 109.066 11.0696C110.203 11.2582 112.035 11.6706 112.049 11.6706C112.109 11.6871 112.164 11.7156 112.211 11.7544L112.794 12.3205C113.221 11.8805 113.748 11.5497 114.331 11.3561C114.015 10.3498 114.521 8.96606 115.658 7.99468C117.013 6.83461 119.315 6.24759 120.095 7.24692C120.495 7.81997 120.397 8.67954 120.045 9.54609Z" fill="white"/>
</g>
<defs>
<clipPath id="clip0_18_325">
<rect width="139" height="84" fill="white"/>
</clipPath>
</defs>
</svg>
