<svg width="75" height="58" viewBox="0 0 75 58" fill="none" xmlns="http://www.w3.org/2000/svg">
<path fill-rule="evenodd" clip-rule="evenodd" d="M20.9872 55.716C18.54 41.8654 18.5439 22.7169 30.0431 10.652C43.1355 -3.08452 64.7573 -0.774421 73.0116 2.50969C74.6696 3.16936 74.6834 5.12521 73.5074 6.4673C69.8534 10.6372 67.5459 16.3624 64.7164 23.3827C62.8974 27.8959 60.8626 32.9444 58.1157 38.4589C52.3487 50.0365 41.1759 57.0293 25.3299 58C31.4325 44.0707 38.3276 29.1184 49.228 18.7895C50.0843 17.9781 49.2694 16.6587 48.2708 17.2866C35.9936 25.0061 26.2508 39.7319 21.0619 56.0337C21.0314 55.9303 21.0063 55.8243 20.9872 55.716Z" fill="#B399F7"/>
<path fill-rule="evenodd" clip-rule="evenodd" d="M17.7268 25.9105C16.3024 31.0133 15.6767 37.1257 16.5034 44.2815C16.594 45.0655 15.8042 45.6907 15.1221 45.3223C1.38614 37.9024 -1.14588 13.1974 0.400244 1.22711C0.461765 0.75081 0.855872 0.387759 1.32984 0.356359C13.6617 -0.460614 24.812 3.71809 29.4847 6.16578C30.1428 6.51052 30.1066 7.44726 29.4803 7.89351C26.4991 10.0175 22.7832 13.933 20.0298 19.7277C17.4859 16.9337 11.2714 10.856 7.46039 8.25992C6.67757 7.72665 6.32228 8.3307 6.96939 9.02238C10.6587 12.9657 16.0563 20.4971 17.7268 25.9105Z" fill="#B399F7"/>
</svg>
