<svg width="48" height="38" viewBox="0 0 48 38" fill="none" xmlns="http://www.w3.org/2000/svg">
<path fill-rule="evenodd" clip-rule="evenodd" d="M13.4909 35.3494C12.0513 26.4312 12.2778 14.5149 19.5167 6.91981C27.4891 -1.44477 40.3299 -0.650198 46.3237 1.23927C48.0256 1.77576 48.0877 3.68425 47.0151 5.11031C45.0521 7.72003 43.6818 11.12 42.0414 15.19C40.8597 18.1219 39.5379 21.4015 37.7534 24.9839C34.007 32.505 26.7489 37.0477 16.4548 37.6783C20.0337 29.5095 24.0321 20.799 29.9857 14.2456C30.7788 13.3725 29.9553 12.1427 29.0212 12.8631C22.2045 18.1206 16.8049 26.7266 13.7565 36.1694C13.6291 35.9174 13.5381 35.6419 13.4909 35.3494Z" fill="#B399F7"/>
<path fill-rule="evenodd" clip-rule="evenodd" d="M11.5158 16.8322C10.633 19.9945 10.2225 23.7537 10.6528 28.1288C10.7301 28.9148 9.94069 29.5338 9.27982 29.1295C0.939853 24.0276 -0.683375 8.80218 0.224109 1.08826C0.280199 0.61148 0.674788 0.240935 1.14886 0.213989C8.62346 -0.210873 15.391 2.15732 18.6373 3.74425C19.305 4.07066 19.2799 5.01081 18.6734 5.48477C16.8289 6.92625 14.6562 9.35513 13.0119 12.8156C11.5299 11.188 8.13051 7.84504 5.659 5.95584C4.90647 5.38062 4.57757 5.89257 5.1993 6.60716C7.53597 9.29281 10.5283 13.6321 11.5158 16.8322Z" fill="#B399F7"/>
</svg>
