<svg width="68" height="68" viewBox="0 0 68 68" fill="none" xmlns="http://www.w3.org/2000/svg">
<circle cx="34" cy="34" r="33.5" fill="url(#paint0_linear_18_254)" stroke="white"/>
<path d="M13.104 43C12.402 43 11.862 42.811 11.484 42.433C11.106 42.055 10.917 41.515 10.917 40.813V26.152C10.917 25.45 11.106 24.91 11.484 24.532C11.862 24.154 12.402 23.965 13.104 23.965H19.638C20.988 23.965 22.14 24.163 23.094 24.559C24.048 24.955 24.768 25.522 25.254 26.26C25.758 26.998 26.01 27.88 26.01 28.906C26.01 30.04 25.686 31.003 25.038 31.795C24.39 32.587 23.499 33.118 22.365 33.388V32.956C23.679 33.19 24.696 33.712 25.416 34.522C26.154 35.314 26.523 36.349 26.523 37.627C26.523 39.319 25.938 40.642 24.768 41.596C23.598 42.532 21.987 43 19.935 43H13.104ZM14.913 39.895H19.368C20.448 39.895 21.24 39.688 21.744 39.274C22.248 38.842 22.5 38.212 22.5 37.384C22.5 36.556 22.248 35.935 21.744 35.521C21.24 35.107 20.448 34.9 19.368 34.9H14.913V39.895ZM14.913 31.795H18.909C19.953 31.795 20.727 31.597 21.231 31.201C21.735 30.805 21.987 30.211 21.987 29.419C21.987 28.645 21.735 28.06 21.231 27.664C20.727 27.268 19.953 27.07 18.909 27.07H14.913V31.795ZM31.4724 43C30.8964 43 30.4554 42.847 30.1494 42.541C29.8434 42.235 29.6904 41.812 29.6904 41.272C29.6904 40.714 29.8434 40.291 30.1494 40.003C30.4554 39.715 30.8964 39.571 31.4724 39.571H34.1994V27.394H36.1704L32.2284 29.797C31.8144 30.049 31.4274 30.148 31.0674 30.094C30.7254 30.04 30.4284 29.887 30.1764 29.635C29.9244 29.383 29.7534 29.086 29.6634 28.744C29.5914 28.384 29.6274 28.033 29.7714 27.691C29.9154 27.331 30.1854 27.025 30.5814 26.773L34.3344 24.505C34.7124 24.271 35.0904 24.082 35.4684 23.938C35.8644 23.794 36.2514 23.722 36.6294 23.722C37.1694 23.722 37.5924 23.866 37.8984 24.154C38.2224 24.424 38.3844 24.847 38.3844 25.423V39.571H40.8414C41.3994 39.571 41.8314 39.715 42.1374 40.003C42.4434 40.291 42.5964 40.714 42.5964 41.272C42.5964 41.83 42.4434 42.262 42.1374 42.568C41.8314 42.856 41.3994 43 40.8414 43H31.4724ZM46.6089 43C45.9429 43 45.4479 42.847 45.1239 42.541C44.8179 42.217 44.6649 41.749 44.6649 41.137C44.6649 40.741 44.7639 40.372 44.9619 40.03C45.1599 39.688 45.4299 39.337 45.7719 38.977L50.8479 33.631C51.6039 32.821 52.1439 32.101 52.4679 31.471C52.8099 30.841 52.9809 30.211 52.9809 29.581C52.9809 28.789 52.7199 28.186 52.1979 27.772C51.6939 27.358 50.9559 27.151 49.9839 27.151C49.4619 27.151 48.9219 27.232 48.3639 27.394C47.8239 27.538 47.2569 27.781 46.6629 28.123C46.2669 28.339 45.8979 28.42 45.5559 28.366C45.2319 28.294 44.9529 28.141 44.7189 27.907C44.4849 27.655 44.3319 27.358 44.2599 27.016C44.1879 26.674 44.2239 26.332 44.3679 25.99C44.5119 25.648 44.7819 25.36 45.1779 25.126C45.9699 24.64 46.8339 24.28 47.7699 24.046C48.7059 23.794 49.6329 23.668 50.5509 23.668C51.9729 23.668 53.1699 23.884 54.1419 24.316C55.1139 24.73 55.8519 25.342 56.3559 26.152C56.8599 26.962 57.1119 27.952 57.1119 29.122C57.1119 29.878 56.9949 30.616 56.7609 31.336C56.5269 32.056 56.1579 32.785 55.6539 33.523C55.1679 34.243 54.5199 35.017 53.7099 35.845L48.9849 40.651V39.571H56.3019C56.8779 39.571 57.3099 39.715 57.5979 40.003C57.9039 40.291 58.0569 40.714 58.0569 41.272C58.0569 41.83 57.9039 42.262 57.5979 42.568C57.3099 42.856 56.8779 43 56.3019 43H46.6089Z" fill="white"/>
<defs>
<linearGradient id="paint0_linear_18_254" x1="29" y1="9.5" x2="52.5" y2="78" gradientUnits="userSpaceOnUse">
<stop stop-color="#79CFFF"/>
<stop offset="0.861117" stop-color="#5400DC"/>
</linearGradient>
</defs>
</svg>
