<svg width="77" height="77" viewBox="0 0 77 77" fill="none" xmlns="http://www.w3.org/2000/svg">
<path fill-rule="evenodd" clip-rule="evenodd" d="M11.3879 16.5058C5.09853 16.5058 0 21.9276 0 28.6158V63.9607C0 70.6488 5.09853 76.0706 11.3879 76.0706H58.2859C64.5752 76.0706 69.6738 70.6488 69.6738 63.9607V57.4023H52.9144C49.7698 57.4023 47.2205 54.6914 47.2205 51.3473V39.1636C47.2205 35.8195 49.7697 33.1086 52.9144 33.1086H69.6738V28.6158C69.6738 21.9276 64.5752 16.5058 58.2859 16.5058H11.3879Z" fill="#B399F7"/>
<path fill-rule="evenodd" clip-rule="evenodd" d="M53.8548 36.8837C52.0578 36.8837 50.6011 38.2522 50.6011 39.9403V50.7035C50.6011 52.3916 52.0578 53.7601 53.8548 53.7601H73.6415C75.4384 53.7601 76.8952 52.3916 76.8952 50.7035V39.9403C76.8952 38.2522 75.4384 36.8837 73.6415 36.8837H53.8548ZM58.9065 49.4255C61.0378 49.4255 62.7655 47.5883 62.7655 45.3219C62.7655 43.0556 61.0378 41.2183 58.9065 41.2183C56.7753 41.2183 55.0476 43.0556 55.0476 45.3219C55.0476 47.5883 56.7753 49.4255 58.9065 49.4255Z" fill="#B399F7"/>
<path fill-rule="evenodd" clip-rule="evenodd" d="M9.24638 17.8765C8.38784 19.0528 8.15304 20.6502 8.76676 22.05L9.24638 23.144V17.8765ZM18.4826 12.7736H53.2065L48.6129 2.29574C47.7259 0.272497 45.4023 -0.57221 43.4231 0.409035L18.4826 12.7736Z" fill="#B399F7"/>
</svg>
