<svg width="45" height="44" viewBox="0 0 45 44" fill="none" xmlns="http://www.w3.org/2000/svg">
<path fill-rule="evenodd" clip-rule="evenodd" d="M6.66433 9.0921C2.98372 9.0921 0 12.265 0 16.179V36.8633C0 40.7772 2.98372 43.9501 6.66433 43.9501H34.1096C37.7902 43.9501 40.7739 40.7772 40.7739 36.8633V33.0252H30.9662C29.1259 33.0252 27.634 31.4388 27.634 29.4818V22.3517C27.634 20.3947 29.1259 18.8083 30.9662 18.8083H40.7739V16.179C40.7739 12.265 37.7902 9.0921 34.1096 9.0921H6.66433Z" fill="#B399F7"/>
<path fill-rule="evenodd" clip-rule="evenodd" d="M31.5164 21.0175C30.4648 21.0175 29.6123 21.8183 29.6123 22.8062V29.105C29.6123 30.0929 30.4648 30.8937 31.5164 30.8937H43.0958C44.1474 30.8937 44.9999 30.0929 44.9999 29.105V22.8062C44.9999 21.8183 44.1474 21.0175 43.0958 21.0175H31.5164ZM34.4727 28.3571C35.7199 28.3571 36.731 27.2819 36.731 25.9556C36.731 24.6293 35.7199 23.5542 34.4727 23.5542C33.2255 23.5542 32.2144 24.6293 32.2144 25.9556C32.2144 27.2819 33.2255 28.3571 34.4727 28.3571Z" fill="#B399F7"/>
<path fill-rule="evenodd" clip-rule="evenodd" d="M10.8159 6.90799H31.1368L29.1147 2.29574C28.2277 0.272496 25.9041 -0.57221 23.9249 0.409035L10.8159 6.90799Z" fill="#B399F7"/>
</svg>
